{"title":"Mirai Nikki","uid":7963169,"size":1710408244,"categoryP":"video","categoryS":"tv_shows","magnet":"?xt=urn:btih:9cb8241b3bdb5d2d39a35c3a7865942e8ba7892d&amp;dn=Mirai+Nikki&amp;tr=udp%3A%2F%2Ftracker.openbittorrent.com%3A80&amp;tr=udp%3A%2F%2Fopen.demonii.com%3A1337&amp;tr=udp%3A%2F%2Ftracker.coppersurfer.tk%3A6969&amp;tr=udp%3A%2F%2Fexodus.desync.com%3A6969","seeders":0,"leechers":1,"uploader":"guru9192","files":26,"time":1356627562,"description":"General\n\nFormat                           : MPEG-4\nFormat profile                   : Base Media / Version 2\nCodec ID                         : mp42\nFile size                        : 63.4 MiB\nDuration                         : 23mn 49s\nOverall bit rate                 : 372 Kbps\nEncoded date                     : UTC 2011-10-18 20:41:26\nTagged date                      : UTC 2011-10-18 20:44:49\nWriting application              : HandBrake 4140svn 2011072501\n\nVideo\n\nID                               : 1\nFormat                           : AVC\nFormat/Info                      : Advanced Video Codec\nFormat profile                   : &lt;a class=&quot;__cf_email__&quot; href=&quot;/cdn-cgi/l/email-protection&quot; data-cfemail=&quot;33715240565f5a5d56737f001d03&quot;&gt;[email&amp;#160;protected]&lt;/a&gt;&lt;script cf-hash='f9e31' type=&quot;text/javascript&quot;&gt;\n/* &lt;![CDATA[ */!function(){try{var t=&quot;currentScript&quot;in document?document.currentScript:function(){for(var t=document.getElementsByTagName(&quot;script&quot;),e=t.length;e--;)if(t[e].getAttribute(&quot;cf-hash&quot;))return t[e]}();if(t&amp;&amp;t.previousSibling){var e,r,n,i,c=t.previousSibling,a=c.getAttribute(&quot;data-cfemail&quot;);if(a){for(e=&quot;&quot;,r=parseInt(a.substr(0,2),16),n=2;a.length-n;n+=2)i=parseInt(a.substr(n,2),16)^r,e+=String.fromCharCode(i);e=document.createTextNode(e),c.parentNode.replaceChild(e,c)}}}catch(u){}}();/* ]]&gt; */&lt;/script&gt;\nFormat settings, CABAC           : No\nFormat settings, ReFrames        : 2 frames\nCodec ID                         : avc1\nCodec ID/Info                    : Advanced Video Coding\nDuration                         : 23mn 49s\nBit rate mode                    : Variable\nBit rate                         : 208 Kbps\nWidth                            : 640 pixels\nHeight                           : 352 pixels\nDisplay aspect ratio             : 16:9\nFrame rate mode                  : Variable\nFrame rate                       : 23.976 fps\nMinimum frame rate               : 23.810 fps\nMaximum frame rate               : 24.390 fps\nColor space                      : YUV\nChroma subsampling               : 4:2:0\nBit depth                        : 8 bits\nScan type                        : Progressive\nBits/(Pixel*Frame)               : 0.039\nStream size                      : 35.5 MiB (56%)\n\nAudio\n\nID                               : 2\nFormat                           : AAC\nFormat/Info                      : Advanced Audio Codec\nFormat profile                   : LC\nCodec ID                         : 40\nDuration                         : 23mn 49s\nBit rate mode                    : Variable\nBit rate                         : 160 Kbps\nMaximum bit rate                 : 296 Kbps\nChannel(s)                       : 2 channels\nChannel positions                : Front: L R\nSampling rate                    : 48.0 KHz\nCompression mode                 : Lossy\nStream size                      : 27.3 MiB (43%)\nLanguage                         : Japanese\nEncoded date                     : UTC 2011-10-18 20:41:26\nTagged date                      : UTC 2011-10-18 20:44:49\n\nDownload and Enjoy...Keep Seeding...","torrent":{"xt":"urn:btih:9cb8241b3bdb5d2d39a35c3a7865942e8ba7892d","amp;dn":"Mirai+Nikki","amp;tr":["udp%3A%2F%2Ftracker.openbittorrent.com%3A80","udp%3A%2F%2Fopen.demonii.com%3A1337","udp%3A%2F%2Ftracker.coppersurfer.tk%3A6969","udp%3A%2F%2Fexodus.desync.com%3A6969"],"infoHash":"9cb8241b3bdb5d2d39a35c3a7865942e8ba7892d","infoHashBuffer":{"type":"Buffer","data":[156,184,36,27,59,219,93,45,57,163,92,58,120,101,148,46,139,167,137,45]},"announce":[],"urlList":[]}}